# xmcd
#
# Track frame offsets:
# 150
# 14887
# 26967
# 41540
# 54201
# 67569
# 81942
# 91731
# 105560
# 117587
# 130956
# 143064
# 154815
# 166818
# 180511
# 192910
# 205355
# 215937
# 228085
# 240170
#
# Disc length: 3379 seconds
#
#
# Revision: 0
# Processed by: cddbd v1.5.2PL0 Copyright (c) Steve Scherf et al.
# Submitted via: FreeRIP 2.944 
#
DISCID=0c0d3114
DTITLE=Johnny Paycheck - Take this Job and Shove It
DYEAR=1900
DGENRE=Country
TTITLE0=A good year for the roses
TTITLE1=Take this job and shove it
TTITLE2=I'm the only hell (Mama ever raised)
TTITLE3=Love is a good thing
TTITLE4=She's all I got
TTITLE5=Friend, lover, wife
TTITLE6=Mr. Lovemaker
TTITLE7=Someone to give my love to
TTITLE8=Born hell raiser
TTITLE9=Somebody loves me
TTITLE10=Keep on lovin' me
TTITLE11=Song and dance man
TTITLE12=For a minute there
TTITLE13=My part of forever
TTITLE14=White lightning
TTITLE15=Georgia in a jug
TTITLE16=Tender years
TTITLE17=Something about you I love
TTITLE18=Me and the I.R.S.
TTITLE19=Slide off your satin sheets
EXTD=
EXTT0=
EXTT1=
EXTT2=
EXTT3=
EXTT4=
EXTT5=
EXTT6=
EXTT7=
EXTT8=
EXTT9=
EXTT10=
EXTT11=
EXTT12=
EXTT13=
EXTT14=
EXTT15=
EXTT16=
EXTT17=
EXTT18=
EXTT19=
PLAYORDER=
